<?xml version="1.0" standalone="no"?>
<!DOCTYPE svg PUBLIC "-//W3C//DTD SVG 20010904//EN"
 "http://www.w3.org/TR/2001/REC-SVG-20010904/DTD/svg10.dtd">
<svg version="1.0" xmlns="http://www.w3.org/2000/svg"
 width="1920.000000pt" height="1080.000000pt" viewBox="0 0 1920.000000 1080.000000"
 preserveAspectRatio="xMidYMid meet">

<g transform="translate(0.000000,1080.000000) scale(0.100000,-0.100000)"
fill="#000000" stroke="none">
<path d="M5171 6655 c-91 -273 -223 -589 -357 -858 -51 -101 -70 -149 -62
-152 20 -6 276 -55 292 -55 14 0 40 121 96 440 l18 105 2 -145 c2 -189 14
-407 21 -415 5 -4 198 -34 230 -35 3 0 -6 45 -22 99 -62 221 -114 532 -144
861 -9 96 -19 200 -23 230 l-8 55 -43 -130z"/>
<path d="M9295 6026 c-17 -7 -40 -26 -50 -42 -11 -16 -110 -276 -221 -579
l-202 -550 85 -3 c59 -2 89 1 94 9 4 7 26 63 49 126 l42 113 255 -2 255 -3 46
-122 45 -123 88 0 c49 0 89 2 89 4 0 14 -403 1104 -415 1122 -34 52 -106 75
-160 50z m149 -497 l93 -254 -185 -3 c-102 -1 -187 0 -190 3 -3 2 32 109 78
237 106 298 100 282 105 276 3 -3 47 -119 99 -259z"/>
<path d="M7404 6020 c-82 -12 -125 -30 -170 -72 -76 -70 -79 -88 -79 -503 0
-326 2 -365 19 -414 24 -69 72 -122 139 -152 50 -23 63 -24 330 -27 l277 -3 0
85 0 86 -245 0 c-274 0 -300 5 -335 62 -17 28 -20 50 -20 156 l0 122 305 0
305 0 0 85 0 85 -305 0 -305 0 0 108 c0 83 5 116 19 149 33 71 44 73 336 73
l256 0 -3 83 -3 82 -235 1 c-129 1 -258 -2 -286 -6z"/>
<path d="M8110 5440 l0 -590 75 0 75 0 -2 588 -3 587 -72 3 -73 3 0 -591z"/>
<path d="M12294 6014 c-74 -36 -72 -144 3 -179 40 -19 77 -13 110 17 51 48 33
136 -32 164 -42 17 -43 17 -81 -2z"/>
<path d="M12620 5440 l0 -590 70 0 70 0 2 368 3 367 78 3 77 3 0 69 0 69 -77
3 -78 3 -3 148 -3 147 -69 0 -70 0 0 -590z"/>
<path d="M14667 6023 c-4 -3 -7 -269 -7 -590 l0 -583 75 0 75 0 0 370 0 370
75 0 75 0 0 70 0 70 -75 0 -75 0 0 150 0 150 -68 0 c-38 0 -72 -3 -75 -7z"/>
<path d="M10100 5721 c-61 -19 -92 -43 -113 -89 -21 -45 -22 -62 -25 -414 l-3
-368 75 0 76 0 0 344 c0 401 -4 386 93 394 l57 4 0 69 0 69 -67 -1 c-38 0 -79
-4 -93 -8z"/>
<path d="M10505 5711 c-48 -22 -79 -54 -100 -103 -12 -31 -15 -85 -15 -299 0
-302 4 -323 70 -389 63 -64 92 -70 324 -70 l196 0 0 -145 0 -146 73 3 72 3 3
475 c3 525 0 559 -51 617 -59 67 -85 73 -322 73 -183 0 -215 -3 -250 -19z
m451 -154 c24 -28 24 -29 24 -258 0 -233 -3 -259 -39 -286 -22 -17 -350 -17
-372 0 -35 27 -39 53 -39 281 0 123 4 236 10 251 5 14 20 30 32 35 13 5 99 9
191 7 l169 -2 24 -28z"/>
<path d="M11330 5387 c0 -394 4 -421 69 -480 55 -50 114 -60 330 -55 161 3
180 5 224 26 34 17 55 37 75 70 l27 47 3 368 3 367 -76 0 -75 0 0 -342 c0
-189 -4 -348 -8 -354 -18 -28 -56 -34 -210 -34 -146 0 -161 2 -186 21 l-26 20
0 345 0 344 -75 0 -75 0 0 -343z"/>
<path d="M12270 5290 l0 -440 70 0 70 0 0 440 0 440 -70 0 -70 0 0 -440z"/>
<path d="M13146 5710 c-63 -25 -101 -62 -123 -119 -16 -40 -18 -81 -18 -306 0
-253 1 -261 24 -308 12 -26 38 -59 57 -73 62 -48 105 -54 391 -54 l263 0 0 75
0 75 -266 0 c-154 0 -273 4 -284 10 -20 11 -40 60 -40 99 0 24 19 35 290 160
l290 135 0 66 c0 89 -22 158 -62 197 -59 57 -87 63 -290 63 -156 -1 -190 -4
-232 -20z m415 -149 c42 -52 35 -59 -181 -159 -111 -51 -207 -95 -215 -99 -13
-4 -15 12 -15 100 0 179 11 188 238 184 148 -2 155 -3 173 -26z"/>
<path d="M14055 5718 c-50 -17 -96 -58 -116 -102 -17 -37 -19 -69 -19 -318 0
-171 4 -287 11 -305 14 -38 65 -90 114 -116 37 -20 57 -22 248 -25 l207 -3 0
75 0 76 -186 0 c-108 0 -193 4 -205 10 -44 24 -49 56 -49 294 0 223 0 225 24
253 l24 28 196 3 196 3 0 70 0 69 -207 -1 c-117 0 -221 -5 -238 -11z"/>
<path d="M15175 5714 c-52 -19 -103 -69 -115 -114 -5 -19 -10 -153 -10 -296 0
-277 4 -310 51 -375 11 -16 39 -39 62 -52 40 -21 54 -22 252 -22 196 0 213 1
250 22 51 27 90 68 109 115 13 31 16 86 16 310 0 244 -2 277 -19 314 -23 51
-59 80 -124 99 -70 21 -414 20 -472 -1z m441 -157 c24 -28 24 -29 24 -268 l0
-240 -25 -24 c-24 -25 -27 -25 -195 -25 l-171 0 -24 26 -25 27 0 242 c0 313
-15 294 238 292 l154 -2 24 -28z"/>
<path d="M4559 5337 c-140 -229 -289 -433 -418 -572 -145 -155 -197 -267 -189
-409 5 -95 32 -157 97 -223 72 -75 140 -95 240 -69 99 25 160 62 246 150 86
88 129 156 201 323 85 199 254 724 235 731 -5 2 -86 41 -179 87 l-171 84 -62
-102z m61 -713 c-65 -164 -132 -268 -192 -300 -97 -51 -177 44 -115 137 21 33
52 51 162 100 30 14 74 48 110 84 33 34 61 61 63 60 1 -2 -11 -38 -28 -81z"/>
<path d="M5234 5103 c20 -147 90 -371 166 -528 128 -266 313 -446 535 -521
108 -36 267 -45 360 -19 166 44 228 144 228 362 0 193 -110 286 -398 337 -150
26 -260 83 -371 191 -55 55 -67 61 -194 105 -75 26 -177 64 -227 84 -50 20
-94 36 -98 36 -4 0 -5 -21 -1 -47z m601 -393 c74 -34 137 -47 287 -60 78 -6
133 -16 162 -29 78 -34 97 -115 38 -162 -23 -18 -37 -20 -94 -16 -118 8 -317
118 -450 249 -72 71 -90 104 -35 68 17 -12 59 -34 92 -50z"/>
<path d="M14897 4712 c-9 -2 -24 -16 -32 -32 -12 -23 -107 -278 -181 -482
l-13 -38 42 0 43 0 19 55 18 55 122 0 122 0 20 -52 c20 -52 21 -53 63 -56 32
-2 41 0 38 10 -3 7 -44 121 -92 253 -49 132 -94 250 -101 261 -15 23 -39 32
-68 26z m67 -238 c20 -55 36 -106 36 -112 0 -8 -27 -12 -85 -12 -47 0 -85 4
-85 10 0 7 26 82 76 219 8 23 18 3 58 -105z"/>
<path d="M11332 4690 c-56 -35 -64 -68 -60 -277 l3 -185 37 -34 38 -34 140 0
140 0 0 40 0 40 -123 0 c-165 0 -157 -10 -157 198 0 133 3 163 16 176 12 13
40 16 140 16 l124 0 0 40 0 40 -132 0 c-116 0 -137 -3 -166 -20z"/>
<path d="M12440 4474 c0 -312 1 -313 167 -314 99 0 104 1 135 29 l33 29 3 123
c6 209 -9 229 -178 229 l-100 0 0 70 0 70 -30 0 -30 0 0 -236z m258 14 c17
-17 17 -229 0 -246 -7 -7 -44 -12 -95 -12 -80 0 -84 1 -93 26 -13 34 -13 200
0 225 9 16 22 19 93 19 51 0 88 -5 95 -12z"/>
<path d="M14214 4696 c-42 -18 -64 -69 -64 -146 0 -110 43 -150 165 -150 94 0
105 -8 105 -78 0 -32 -5 -63 -12 -70 -8 -8 -53 -12 -135 -12 l-123 0 0 -41 0
-40 146 3 146 3 29 33 c27 30 29 37 29 120 0 85 -1 89 -31 118 -28 27 -37 29
-117 32 -109 5 -122 15 -122 88 0 42 4 55 19 64 11 5 74 10 140 10 l121 0 0
40 0 40 -132 0 c-89 -1 -143 -5 -164 -14z"/>
<path d="M15382 4690 c-42 -26 -52 -54 -52 -143 0 -114 38 -147 169 -147 87 0
101 -12 101 -84 0 -28 -5 -57 -12 -64 -8 -8 -53 -12 -135 -12 l-123 0 0 -40 0
-40 131 0 c115 0 136 3 164 20 40 25 55 64 55 141 0 114 -37 149 -158 149
-102 0 -112 7 -112 78 0 32 5 63 12 70 8 8 53 12 135 12 l123 0 0 40 0 40
-132 0 c-115 0 -137 -3 -166 -20z"/>
<path d="M11850 4535 l0 -34 138 -3 c134 -3 137 -4 140 -25 3 -22 1 -23 -90
-23 -114 0 -157 -17 -175 -70 -17 -49 -16 -126 2 -160 27 -52 49 -60 162 -60
99 0 104 1 135 29 l33 29 0 152 0 152 -28 24 c-27 23 -34 24 -173 24 l-144 0
0 -35z m264 -171 c19 -19 22 -104 4 -122 -7 -7 -45 -12 -99 -12 -98 0 -99 1
-99 75 0 63 16 75 105 75 54 0 78 -4 89 -16z"/>
<path d="M13020 4535 l0 -35 135 0 135 0 0 -24 c0 -24 -2 -24 -105 -28 -99 -3
-106 -5 -132 -30 -23 -24 -28 -38 -31 -98 -8 -131 23 -160 173 -160 107 0 128
7 150 50 18 35 21 275 4 313 -18 39 -50 47 -194 47 l-135 0 0 -35z m254 -168
c14 -10 17 -25 14 -72 l-3 -60 -95 0 -95 0 -3 60 c-4 75 8 85 98 85 38 0 74
-5 84 -13z"/>
<path d="M13633 4546 l-28 -24 -3 -181 -3 -181 35 0 36 0 2 168 3 167 33 3
c29 3 32 6 32 38 0 33 -1 34 -39 34 -28 0 -49 -7 -68 -24z"/>
<path d="M14570 4229 c-29 -53 40 -96 74 -47 13 19 14 25 2 43 -19 29 -62 32
-76 4z"/>
<path d="M15192 4238 c-28 -28 -7 -78 33 -78 27 0 45 18 45 45 0 27 -18 45
-45 45 -12 0 -26 -5 -33 -12z"/>
</g>
</svg>
