<svg width="220" height="64" viewBox="0 0 220 64" fill="none" xmlns="http://www.w3.org/2000/svg">
  <defs>
    <linearGradient id="logoGradient" x1="12" y1="8" x2="52" y2="56" gradientUnits="userSpaceOnUse">
      <stop offset="0" stop-color="#2563EB" />
      <stop offset="1" stop-color="#38BDF8" />
    </linearGradient>
    <linearGradient id="accentGradient" x1="32" y1="18" x2="48" y2="44" gradientUnits="userSpaceOnUse">
      <stop offset="0" stop-color="#22C55E" />
      <stop offset="1" stop-color="#0EA5E9" />
    </linearGradient>
    <clipPath id="logoClip">
      <rect x="12" y="12" width="40" height="40" rx="12" />
    </clipPath>
  </defs>
  <rect x="0.75" y="0.75" width="62.5" height="62.5" rx="18" fill="url(#logoGradient)" />
  <rect x="0.75" y="0.75" width="62.5" height="62.5" rx="18" stroke="white" stroke-opacity="0.4" stroke-width="1.5" />
  <g clip-path="url(#logoClip)">
    <path d="M20.5 48C20.5 37.2309 29.2309 28.5 40 28.5C47.4558 28.5 53.7947 32.5954 57.0339 38.7084" stroke="url(#accentGradient)" stroke-width="4" stroke-linecap="round" stroke-linejoin="round" opacity="0.9" />
    <path d="M20.5 37.5L27.5 31.5L34.5 36.5L44.5 24.5L56 35" stroke="white" stroke-width="3.2" stroke-linecap="round" stroke-linejoin="round" />
    <circle cx="27.5" cy="31.5" r="3.1" fill="white" />
    <circle cx="34.5" cy="36.5" r="3.1" fill="white" />
    <circle cx="44.5" cy="24.5" r="3.1" fill="white" />
    <circle cx="56" cy="35" r="3.1" fill="white" />
  </g>
  <text x="78" y="38" fill="#0F172A" font-family="'Inter','Segoe UI',sans-serif" font-size="28" font-weight="700" letter-spacing="0.01em">
    Rentabilidad
  </text>
  <text x="78" y="54" fill="#2563EB" font-family="'Inter','Segoe UI',sans-serif" font-size="14" font-weight="600" letter-spacing="0.18em">
    CONTROL SUITE
  </text>
</svg>
