<?xml version="1.0" encoding="UTF-8"?>
<svg version="1.1" xmlns="http://www.w3.org/2000/svg" width="1920" height="1080">
<path d="M0 0 C0.66 0 1.32 0 2 0 C2.34077314 3.62433988 2.6712218 7.24955391 3 10.875 C3.14308594 12.39480469 3.14308594 12.39480469 3.2890625 13.9453125 C3.86095879 20.31787113 4.12770164 26.60250235 4 33 C4.85335937 32.75765625 5.70671875 32.5153125 6.5859375 32.265625 C15.42725684 29.89578683 24.26336368 28.19792729 33.3125 26.8125 C34.39644043 26.64588867 35.48038086 26.47927734 36.59716797 26.30761719 C50.07137426 24.30733111 63.27189982 23.7590008 76.875 23.75 C77.79007324 23.74932526 78.70514648 23.74865051 79.64794922 23.74795532 C99.28113892 23.77096969 117.37283797 25.52914817 136 32 C137.07636719 32.36867188 138.15273438 32.73734375 139.26171875 33.1171875 C153.73536986 38.60393106 166.50434451 48.24604018 173.03515625 62.5390625 C178.17537298 75.64973676 176.94893451 90.09272406 171.37109375 102.88671875 C164.38371286 117.94025328 154.46610567 130.13987008 143 142 C143.3609375 142.87140625 143.721875 143.7428125 144.09375 144.640625 C147.61666505 153.68277362 150.60228695 162.79450451 146.5 172.25 C140.17245784 182.83984486 130.10976863 188.31128735 118.5625 191.8125 C106.73261127 194.63074739 96.62275435 193.70334469 84.89746094 191.37548828 C76.59216217 189.59890331 76.59216217 189.59890331 68.72265625 191.99609375 C68.02019775 192.36790771 67.31773926 192.73972168 66.59399414 193.12280273 C66.06797607 193.41227783 65.54195801 193.70175293 65 194 C74.97029761 199.83168351 84.35585643 203.04479367 95.68408203 205.27832031 C108.58898015 207.84163675 120.60643825 211.358614 128.4375 222.625 C134.10287777 231.4240881 132.80809565 243.62426232 131.5390625 253.63671875 C129.80079106 261.62254226 126.48781609 267.13224011 120.1875 272.3125 C105.44376488 280.11800683 88.72970517 279.17681437 73 275 C60.38436575 270.83418166 50.5300144 264.12113589 41 255 C40.32195312 254.39671875 39.64390625 253.7934375 38.9453125 253.171875 C27.98699388 243.0497333 21.28148959 229.3010132 15 216 C14.67 215.34 14.34 214.68 14 214 C7.74739549 215.18401663 1.57125047 216.56743945 -4.60302734 218.10668945 C-16.97258459 221.18781947 -29.35417562 223.63266442 -41.94482422 225.61450195 C-44.18739318 225.98695942 -44.18739318 225.98695942 -47 227 C-48.36729775 229.44330164 -49.5766936 231.84110558 -50.75 234.375 C-58.98091331 251.35843792 -69.16210652 265.66773993 -87.3125 272.875 C-94.40668031 274.97558176 -102.71222796 275.49632576 -109.5 272.25 C-110.68687712 271.53241111 -111.8566221 270.78504655 -113 270 C-114.299375 269.1646875 -114.299375 269.1646875 -115.625 268.3125 C-123.39235642 260.74954769 -127.04436208 251.75950903 -127.375 241 C-127.24230484 235.30885201 -125.97559705 230.31529682 -124 225 C-125.56234375 224.5978125 -125.56234375 224.5978125 -127.15625 224.1875 C-140.72556126 220.53870343 -154.3504181 215.49306622 -165 206 C-166.00933594 205.14535156 -166.00933594 205.14535156 -167.0390625 204.2734375 C-175.54526548 196.53183704 -179.66444932 187.00032951 -180.87890625 175.64453125 C-181.24762024 164.54742964 -178.91032886 154.8890467 -174 145 C-173.35224609 143.64841797 -173.35224609 143.64841797 -172.69140625 142.26953125 C-164.66921067 126.52057505 -151.64520864 112.12842571 -138 101 C-136.83320124 100.02099074 -135.66652353 99.04183719 -134.5 98.0625 C-133.675 97.381875 -132.85 96.70125 -132 96 C-135.63 93.69 -139.26 91.38 -143 89 C-142.505 87.515 -142.505 87.515 -142 86 C-141.35933594 86.19335938 -140.71867187 86.38671875 -140.05859375 86.5859375 C-139.19363281 86.84632813 -138.32867187 87.10671875 -137.4375 87.375 C-136.59058594 87.63023437 -135.74367188 87.88546875 -134.87109375 88.1484375 C-133.92363281 88.42945313 -132.97617187 88.71046875 -132 89 C-130.86691406 89.45246094 -129.73382813 89.90492188 -128.56640625 90.37109375 C-124.93974162 91.38375812 -124.93974162 91.38375812 -121.78125 89.32421875 C-120.67170642 88.46533674 -119.57864744 87.58487671 -118.5 86.6875 C-117.26253595 85.73641719 -116.02154095 84.78991371 -114.77734375 83.84765625 C-114.14812012 83.36570801 -113.51889648 82.88375977 -112.87060547 82.38720703 C-90.37859851 65.70754329 -62.41668639 53.93694081 -36.25 44.5 C-35.08380127 44.07831543 -33.91760254 43.65663086 -32.71606445 43.22216797 C-26.20319999 40.93278605 -19.81855815 39.10613025 -13 38 C-12.83709473 37.44127197 -12.67418945 36.88254395 -12.50634766 36.30688477 C-10.28774384 28.79700903 -7.84993379 21.3662932 -5.375 13.9375 C-4.96765625 12.70322266 -4.5603125 11.46894531 -4.140625 10.19726562 C-3.75132812 9.02744141 -3.36203125 7.85761719 -2.9609375 6.65234375 C-2.60821777 5.59007568 -2.25549805 4.52780762 -1.89208984 3.43334961 C-1 1 -1 1 0 0 Z " fill="#AEC736" transform="translate(521,401)"/>
<path d="M0 0 C1.37260986 -0.00101212 1.37260986 -0.00101212 2.77294922 -0.00204468 C22.40613892 0.02096969 40.49783797 1.77914817 59.125 8.25 C60.20136719 8.61867188 61.27773438 8.98734375 62.38671875 9.3671875 C76.86036986 14.85393106 89.62934451 24.49604018 96.16015625 38.7890625 C101.30037298 51.89973676 100.07393451 66.34272406 94.49609375 79.13671875 C87.50871286 94.19025328 77.59110567 106.38987008 66.125 118.25 C62.33230433 116.50568005 60.07920004 114.20420004 57.125 111.25 C48.65930543 104.85369744 39.95188514 103.07377086 29.47412109 103.15234375 C28.73174194 103.15380402 27.98936279 103.15526428 27.2244873 103.1567688 C25.62035832 103.16055872 24.01623344 103.16665816 22.41212082 103.17483521 C19.86276157 103.18767975 17.31345486 103.19413596 14.7640686 103.19897461 C8.42837824 103.21229897 2.09273755 103.23640931 -4.24291992 103.26037598 C-9.59524643 103.2802313 -14.94755363 103.29582458 -20.29990768 103.30593872 C-22.79231002 103.31234764 -25.28463157 103.32485839 -27.77700806 103.33764648 C-49.39943758 103.40852081 -49.39943758 103.40852081 -55.875 101.25 C-63.03176748 85.1050088 -65.59212322 65.59968006 -68.18798828 48.28417969 C-68.62812035 45.35422791 -69.08450782 42.42713417 -69.54296875 39.5 C-71.09822738 29.42266284 -72.40869165 19.44559229 -72.875 9.25 C-63.16762543 6.56349324 -53.52208092 4.58731681 -43.5625 3.0625 C-41.93658936 2.81258301 -41.93658936 2.81258301 -40.27783203 2.55761719 C-26.80362574 0.55733111 -13.60310018 0.0090008 0 0 Z " fill="#FBEC09" transform="translate(597.875,424.75)"/>
<path d="M0 0 C3.12697431 0.95654647 5.6314708 2.30831654 8.4543457 3.96191406 C9.57873047 4.61409912 10.70311523 5.26628418 11.86157227 5.93823242 C12.75036072 6.45980423 12.75036072 6.45980423 13.65710449 6.99191284 C16.7941479 8.83194747 19.94482544 10.64833649 23.0949707 12.46582031 C23.73324799 12.83465836 24.37152527 13.2034964 25.02914429 13.58351135 C31.10544666 17.08491389 37.25636604 20.4411689 43.43481445 23.75878906 C52.58050478 28.67317296 61.66143828 33.68592645 70.68481445 38.82128906 C61.16550937 55.98403618 50.77476306 72.35097121 38.68481445 87.82128906 C37.5884668 89.23861328 37.5884668 89.23861328 36.4699707 90.68457031 C31.24045694 97.34313932 25.62650866 103.65833551 19.8059082 109.80566406 C14.77568874 115.25225516 11.24044639 121.33685392 7.68481445 127.82128906 C-10.12463817 126.88394945 -26.93661466 118.40205076 -39.31518555 105.82128906 C-39.91202148 105.22316406 -40.50885742 104.62503906 -41.1237793 104.00878906 C-48.52175936 96.03889532 -50.7696498 86.50933626 -51.31518555 75.82128906 C-50.92243352 65.99241793 -48.6733607 57.5983382 -44.31518555 48.82128906 C-43.88334961 47.92023437 -43.45151367 47.01917969 -43.0065918 46.09082031 C-34.94822558 30.2708549 -21.92926292 16.07967215 -8.31518555 4.82128906 C-7.50114258 4.04785156 -7.50114258 4.04785156 -6.6706543 3.25878906 C-2.93000595 -0.22616939 -2.93000595 -0.22616939 0 0 Z " fill="#FBEC09" transform="translate(391.315185546875,497.1787109375)"/>
<path d="M0 0 C6.69947461 1.62211688 12.87137027 3.71849364 19.16796875 6.5078125 C22.27968777 7.79631979 25.44091111 8.74579089 28.67578125 9.6796875 C47.78522109 15.29588907 47.78522109 15.29588907 54.75561523 23.48632812 C63.6257339 33.73523015 77.61053451 38.26274207 90.546875 40.65625 C104.45530198 43.26762813 117.98786987 46.46869251 126.4375 58.625 C132.10287777 67.4240881 130.80809565 79.62426232 129.5390625 89.63671875 C127.80079106 97.62254226 124.48781609 103.13224011 118.1875 108.3125 C103.44376488 116.11800683 86.72970517 115.17681437 71 111 C58.38436575 106.83418166 48.5300144 100.12113589 39 91 C38.32195313 90.39671875 37.64390625 89.7934375 36.9453125 89.171875 C17.6142759 71.31589741 8.61612673 43.45019847 2.5625 18.6875 C2.3032373 17.63183838 2.04397461 16.57617676 1.77685547 15.48852539 C0.54099996 10.20152704 -0.31401967 5.43024266 0 0 Z " fill="#057DC0" transform="translate(523,565)"/>
<path d="M0 0 C1.17433594 0.556875 2.34867187 1.11375 3.55859375 1.6875 C14.36397939 6.80964342 25.17739413 11.91434526 36 17 C32.52475043 33.00170882 27.19193888 48.49256985 22 64 C21.77038574 64.68837952 21.54077148 65.37675903 21.30419922 66.08599854 C7.58373223 107.16905883 7.58373223 107.16905883 -6 122 C-6.63550781 122.71542969 -7.27101563 123.43085937 -7.92578125 124.16796875 C-16.50737504 133.33428035 -26.95600745 138.98726812 -39.5625 139.4375 C-45.31089336 139.29664089 -49.27807129 138.24208981 -54 135 C-54.86625 134.443125 -55.7325 133.88625 -56.625 133.3125 C-64.39235642 125.74954769 -68.04436208 116.75950903 -68.375 106 C-67.81312647 89.64323731 -57.92131715 77.38035675 -47 66 C-31.62167292 49.92660729 -19.35360144 30.91628774 -7.828125 11.96484375 C-5.32407255 7.90378432 -2.67937369 3.946537 0 0 Z " fill="#DB1F26" transform="translate(462,536)"/>
<path d="M0 0 C6.79724911 3.14687459 9.32669282 9.02294488 11.88085938 15.6953125 C12.54170631 17.502827 13.19558954 19.31289753 13.84375 21.125 C14.20599167 22.12121872 14.56823334 23.11743744 14.94145203 24.1438446 C16.13369244 27.42706945 17.31688072 30.71347851 18.5 34 C19.3305348 36.29294249 20.16168101 38.58566359 20.9934082 40.87817383 C22.7494112 45.72060282 24.50198243 50.56425574 26.25244141 55.40869141 C28.81857073 62.50791277 31.40194195 69.60079121 33.98966599 76.69216537 C35.60769528 81.12642944 37.2243316 85.56120174 38.84130859 89.99584961 C39.73933652 92.45850473 40.63761158 94.92106974 41.53613281 97.38354492 C42.79002791 100.82151677 44.04179888 104.26025435 45.29296875 107.69921875 C45.67015549 108.73213547 46.04734222 109.76505219 46.43595886 110.82926941 C46.77573257 111.7643483 47.11550629 112.69942719 47.46557617 113.6628418 C47.76356613 114.48084763 48.06155609 115.29885345 48.36857605 116.14164734 C49 118 49 118 49 119 C42.4 119 35.8 119 29 119 C27.66278583 115.3763884 26.33006834 111.75123363 25 108.125 C24.6184375 107.09246094 24.236875 106.05992187 23.84375 104.99609375 C23.4828125 104.00996094 23.121875 103.02382813 22.75 102.0078125 C22.24726562 100.64100342 22.24726562 100.64100342 21.734375 99.24658203 C21 97 21 97 21 95 C4.17 95 -12.66 95 -30 95 C-30.33 96.98 -30.66 98.96 -31 101 C-31.49399097 102.52456109 -32.03557751 104.03472174 -32.62890625 105.5234375 C-32.91064697 106.23935059 -33.1923877 106.95526367 -33.48266602 107.69287109 C-33.83901123 108.57797363 -34.19535645 109.46307617 -34.5625 110.375 C-35.696875 113.22125 -36.83125 116.0675 -38 119 C-44.6 119 -51.2 119 -58 119 C-51.19675981 99.51437295 -44.14181154 80.12380625 -37.0060997 60.75767136 C-36.32141787 58.89920622 -35.63722244 57.04056191 -34.95303345 55.18191528 C-32.37907717 48.19231034 -29.79430314 41.20685526 -27.19683838 34.22595215 C-26.04062023 31.10948756 -24.8955463 27.98910022 -23.75146484 24.86816406 C-23.05749971 22.99784882 -22.36303187 21.12771998 -21.66796875 19.2578125 C-21.36796463 18.43038544 -21.06796051 17.60295837 -20.75886536 16.75045776 C-16.63881064 5.76169941 -12.81926368 -1.57990925 0 0 Z M-5 26 C-6.76235116 30.85139008 -8.52206036 35.70372815 -10.27954102 40.55688477 C-10.87520596 42.20068937 -11.47153756 43.84425258 -12.06860352 45.48754883 C-12.9369055 47.87775269 -13.80263814 50.26887527 -14.66796875 52.66015625 C-15.05579781 53.72521141 -15.05579781 53.72521141 -15.45146179 54.81178284 C-18.10797928 62.16740197 -20.5239214 69.5717642 -23 77 C-10.79 77 1.42 77 14 77 C11.97354747 70.24515824 9.86633939 63.65301957 7.42578125 57.0546875 C7.09708542 56.15879913 6.76838959 55.26291077 6.42973328 54.33987427 C5.39341188 51.51722733 4.35303287 48.69609677 3.3125 45.875 C2.60324512 43.94541191 1.89425832 42.01572525 1.18554688 40.0859375 C-0.53987581 35.38948141 -2.26893567 30.69437941 -4 26 C-4.33 26 -4.66 26 -5 26 Z " fill="#005DA7" transform="translate(939,476)"/>
<path d="M0 0 C1.08074295 0.00007553 2.1614859 0.00015106 3.27497864 0.00022888 C5.00804512 0.00797081 5.00804512 0.00797081 6.77612305 0.01586914 C8.56339058 0.01799156 8.56339058 0.01799156 10.38676453 0.02015686 C14.1871493 0.02574811 17.98747487 0.03829907 21.7878418 0.05102539 C24.36661699 0.05604152 26.9453931 0.06060423 29.52416992 0.06469727 C35.84124998 0.07571469 42.15828585 0.09297338 48.4753418 0.11352539 C48.4753418 6.05352539 48.4753418 11.99352539 48.4753418 18.11352539 C46.89599854 18.11763428 45.31665527 18.12174316 43.68945312 18.12597656 C37.82795609 18.14775349 31.96713169 18.20202979 26.10595703 18.26611328 C23.56956429 18.28930557 21.03307508 18.30369184 18.49658203 18.30908203 C14.84956656 18.31836197 11.20407116 18.35933592 7.55737305 18.40649414 C6.42386917 18.40256149 5.2903653 18.39862885 4.12251282 18.39457703 C-2.24551392 18.46542194 -2.24551392 18.46542194 -7.71728516 21.47021484 C-13.72227314 30.25260102 -10.98823661 37.77582881 -11.5246582 50.11352539 C8.2753418 50.11352539 28.0753418 50.11352539 48.4753418 50.11352539 C48.4753418 56.05352539 48.4753418 61.99352539 48.4753418 68.11352539 C28.6753418 68.11352539 8.8753418 68.11352539 -11.5246582 68.11352539 C-13.08698233 90.92363814 -13.08698233 90.92363814 -6.5246582 98.11352539 C-4.01531521 99.36819689 -2.24088466 99.27226097 0.56762695 99.31884766 C1.62857574 99.33879288 2.68952454 99.3587381 3.78262329 99.37928772 C4.93161102 99.39600021 6.08059875 99.41271271 7.2644043 99.42993164 C9.02474503 99.46110329 9.02474503 99.46110329 10.82064819 99.49290466 C14.58048484 99.55844522 18.34039302 99.61730615 22.1003418 99.67602539 C24.64462012 99.71920632 27.18889112 99.76282046 29.7331543 99.80688477 C35.98047627 99.91413125 42.22787039 100.015386 48.4753418 100.11352539 C48.4753418 106.05352539 48.4753418 111.99352539 48.4753418 118.11352539 C41.21621637 118.20434305 33.95740783 118.27753629 26.69783211 118.32077408 C23.32592577 118.34153916 19.95443241 118.36964928 16.58276367 118.4152832 C12.69528527 118.46409202 8.80838444 118.48656183 4.9206543 118.50415039 C3.72546173 118.52479553 2.53026917 118.54544067 1.29885864 118.56671143 C-7.1711462 118.56895531 -14.29906687 117.35041652 -21.14575195 112.10571289 C-22.04487305 111.05770508 -22.04487305 111.05770508 -22.9621582 109.98852539 C-23.57961914 109.30532227 -24.19708008 108.62211914 -24.83325195 107.91821289 C-30.31293784 98.83180535 -29.9841696 88.81235254 -29.95825195 78.55493164 C-29.96282375 76.95889567 -29.96813226 75.36286167 -29.97413635 73.76683044 C-29.98302619 70.43594318 -29.98069169 67.10529621 -29.97070312 63.77441406 C-29.95921673 59.53359628 -29.97944049 55.29361165 -30.00862026 51.05290318 C-30.02708114 47.76090849 -30.02667031 44.46910987 -30.02098274 41.17707634 C-30.02083074 39.61477426 -30.02677319 38.05245784 -30.03927422 36.49020576 C-30.17711736 16.44521738 -30.17711736 16.44521738 -23.61180115 8.92140198 C-16.86724777 2.50265883 -9.235476 -0.02162875 0 0 Z " fill="#005DA7" transform="translate(744.524658203125,476.886474609375)"/>
<path d="M0 0 C0.81502991 -0.00570007 1.63005981 -0.01140015 2.4697876 -0.01727295 C4.19110834 -0.02669436 5.91244688 -0.03324553 7.63378906 -0.03710938 C10.2431657 -0.04679166 12.85174617 -0.07783207 15.4609375 -0.109375 C17.14062037 -0.11590855 18.82030882 -0.12115764 20.5 -0.125 C21.65360016 -0.1435202 21.65360016 -0.1435202 22.83050537 -0.16241455 C29.29103793 -0.13635344 35.7038926 0.95937193 40.85546875 5.0703125 C41.38269531 5.73289062 41.90992188 6.39546875 42.453125 7.078125 C42.99839844 7.73554687 43.54367187 8.39296875 44.10546875 9.0703125 C47.8088936 14.67161435 47.79278041 19.61327322 47.74267578 26.1340332 C47.74296783 27.12962753 47.74325989 28.12522186 47.74356079 29.15098572 C47.74216962 32.43538181 47.72661823 35.71954988 47.7109375 39.00390625 C47.70720662 41.28362402 47.70436 43.5633434 47.70236206 45.84306335 C47.69473154 51.83867838 47.67508793 57.83419626 47.6529541 63.82977295 C47.63248322 69.94965297 47.62335768 76.06954872 47.61328125 82.18945312 C47.59184158 94.19405306 47.55771255 106.19858095 47.515625 118.203125 C42.565625 118.203125 37.615625 118.203125 32.515625 118.203125 C32.515625 108.633125 32.515625 99.063125 32.515625 89.203125 C27.89046875 89.29013672 27.89046875 89.29013672 23.171875 89.37890625 C20.1666928 89.41796336 17.16153948 89.44828719 14.15625 89.4777832 C12.07669298 89.50284005 9.99722326 89.53689521 7.91796875 89.58032227 C4.91905106 89.64136345 1.92130322 89.66942342 -1.078125 89.69140625 C-2.45985901 89.73011589 -2.45985901 89.73011589 -3.86950684 89.76960754 C-11.92096489 89.77306164 -16.61795213 87.00584958 -22.296875 81.453125 C-27.38333472 73.89609913 -27.93471083 66.37155687 -27.8828125 57.44921875 C-27.88711777 55.79878319 -27.88711777 55.79878319 -27.89151001 54.11500549 C-27.89354132 51.80135581 -27.88807719 49.48768859 -27.87548828 47.17407227 C-27.85940661 43.64755645 -27.8753776 40.12218394 -27.89453125 36.59570312 C-27.89254895 34.33853916 -27.88870556 32.0813759 -27.8828125 29.82421875 C-27.88888519 28.77817978 -27.89495789 27.73214081 -27.9012146 26.65440369 C-27.81480238 17.59506244 -26.02202115 10.74077115 -19.484375 4.203125 C-13.14492821 0.37304256 -7.26752985 0.0397421 0 0 Z M-11.484375 19.203125 C-12.08835798 21.48185632 -12.08835798 21.48185632 -12.00195312 24.07006836 C-12.01456177 25.0579686 -12.02717041 26.04586884 -12.04016113 27.06370544 C-12.03206421 28.12936234 -12.02396729 29.19501923 -12.015625 30.29296875 C-12.02136536 31.93707481 -12.02136536 31.93707481 -12.02722168 33.61439514 C-12.02994504 35.93361326 -12.02255437 38.25286186 -12.00585938 40.57202148 C-11.98447761 44.12358125 -12.00563766 47.67311318 -12.03125 51.22460938 C-12.0286064 53.47656697 -12.02348076 55.7285233 -12.015625 57.98046875 C-12.02372192 59.04410141 -12.03181885 60.10773407 -12.04016113 61.20359802 C-12.07375698 66.90310436 -12.07375698 66.90310436 -9.57617188 71.84204102 C-4.29647997 75.27741478 1.5270514 74.42686043 7.63647461 74.44335938 C9.80947483 74.4530419 11.98151963 74.48405326 14.15429688 74.515625 C15.54166106 74.52215769 16.929032 74.52740712 18.31640625 74.53125 C20.20613159 74.54526855 20.20613159 74.54526855 22.1340332 74.55957031 C25.85904918 74.1669255 27.67014812 73.62923819 30.515625 71.203125 C32.93459641 66.31778711 32.80741148 61.41038047 32.78125 56.078125 C32.78316345 55.21300293 32.7850769 54.34788086 32.78704834 53.45654297 C32.78840432 51.63443713 32.78474905 49.81232144 32.77636719 47.99023438 C32.76565927 45.21201741 32.7762824 42.43444701 32.7890625 39.65625 C32.7877408 37.88020692 32.78517819 36.10416423 32.78125 34.328125 C32.78529846 33.50296387 32.78934692 32.67780273 32.79351807 31.82763672 C32.75016175 26.45643968 32.61397821 21.56377236 28.87109375 17.35302734 C25.55898217 15.7361072 22.43596525 15.7738517 18.828125 15.8046875 C18.08860596 15.80181732 17.34908691 15.79894714 16.5871582 15.79598999 C15.02717318 15.79395297 13.4671624 15.79945755 11.90722656 15.81201172 C9.52350592 15.8280719 7.1414806 15.81215221 4.7578125 15.79296875 C3.2395796 15.79495125 1.72134776 15.79879506 0.203125 15.8046875 C-0.50739014 15.79861481 -1.21790527 15.79254211 -1.94995117 15.7862854 C-6.14649912 15.84573861 -8.47307143 16.24654337 -11.484375 19.203125 Z " fill="#005DA7" transform="translate(1065.484375,505.796875)"/>
<path d="M0 0 C-5.30784804 16.75554352 -12.78089204 32.77391225 -20.1875 48.6875 C-20.47501129 49.30781097 -20.76252258 49.92812195 -21.05874634 50.56723022 C-25.07847103 59.22091386 -29.39136354 67.64940507 -34 76 C-42.11066973 74.74403828 -50.08569315 73.17915967 -58.0625 71.25 C-59.14595703 70.98904541 -60.22941406 70.72809082 -61.34570312 70.45922852 C-70.28691167 68.26146681 -79.01341031 65.59615545 -87.75488281 62.72021484 C-92.30083476 61.26191143 -96.89377739 59.95789511 -101.484375 58.64819336 C-105.07971587 57.6112466 -108.55492688 56.46315847 -112 55 C-110.88319463 51.64958388 -110.38226303 51.29700606 -107.5625 49.43359375 C-106.84175293 48.95341797 -106.12100586 48.47324219 -105.37841797 47.97851562 C-104.59354004 47.46998047 -103.80866211 46.96144531 -103 46.4375 C-102.18547363 45.90447266 -101.37094727 45.37144531 -100.53173828 44.82226562 C-31.49529877 0 -31.49529877 0 0 0 Z " fill="#FBEC09" transform="translate(508,439)"/>
<path d="M0 0 C2.23841701 -0.00969326 4.47590961 -0.04075899 6.71411133 -0.07226562 C23.62998594 -0.20123875 23.62998594 -0.20123875 30.2824707 5.10742188 C30.80969727 5.77 31.33692383 6.43257812 31.88012695 7.11523438 C32.42540039 7.77265625 32.97067383 8.43007813 33.5324707 9.10742188 C37.23334194 14.70486147 37.19407458 19.53095459 37.06762695 26.05273438 C37.05860352 26.93638672 37.04958008 27.82003906 37.0402832 28.73046875 C37.01682332 30.90050797 36.9809556 33.07040685 36.94262695 35.24023438 C18.27596029 43.90690104 -0.39070638 52.57356771 -19.05737305 61.24023438 C-19.3544545 67.08112046 -19.3544545 67.08112046 -17.05737305 72.24023438 C-14.08844593 73.22987675 -12.04587397 73.39297165 -8.94335938 73.44555664 C-7.38208061 73.47547447 -7.38208061 73.47547447 -5.78926086 73.5059967 C-4.6673082 73.5227092 -3.54535553 73.53942169 -2.3894043 73.55664062 C-0.66448006 73.58781227 -0.66448006 73.58781227 1.09529114 73.61961365 C4.7735082 73.68506779 8.45179743 73.74397512 12.13012695 73.80273438 C14.62167091 73.84592351 17.11320754 73.88953793 19.60473633 73.93359375 C25.71729233 74.04074503 31.82992101 74.14202435 37.94262695 74.24023438 C37.94262695 79.19023438 37.94262695 84.14023437 37.94262695 89.24023438 C30.68352656 89.35375606 23.42492122 89.44524629 16.16511726 89.49929523 C12.79308898 89.52525252 9.42170589 89.56038943 6.05004883 89.61743164 C2.16250936 89.67844362 -1.72412775 89.70652877 -5.61206055 89.72851562 C-6.80725311 89.75432205 -8.00244568 89.78012848 -9.2338562 89.80671692 C-18.02507216 89.80962815 -25.05832041 88.1367472 -31.49487305 81.86523438 C-35.89968954 74.46514266 -36.51393766 68.85768535 -36.4909668 60.31445312 C-36.49620865 59.17168411 -36.5014505 58.0289151 -36.5068512 56.85151672 C-36.51325767 54.44016327 -36.51195228 52.0287785 -36.50341797 49.61743164 C-36.49492487 45.9501097 -36.52366422 42.28435516 -36.55541992 38.6171875 C-36.55703267 36.2662765 -36.556453 33.91536278 -36.5534668 31.56445312 C-36.56470078 30.47871506 -36.57593475 29.39297699 -36.58750916 28.27433777 C-36.51884313 20.67828355 -35.57636095 13.16534122 -30.31687927 7.2988739 C-21.67514195 -0.63825277 -11.09302496 0.02902983 0 0 Z M-20.05737305 21.24023438 C-20.73486732 23.8280836 -20.73486732 23.8280836 -20.5456543 26.54101562 C-20.52954102 27.51748047 -20.51342773 28.49394531 -20.49682617 29.5 C-20.45493164 30.50740234 -20.41303711 31.51480469 -20.36987305 32.55273438 C-20.34731445 33.57947266 -20.32475586 34.60621094 -20.30151367 35.6640625 C-20.24274879 38.19095228 -20.16065154 40.71483693 -20.05737305 43.24023438 C-14.9997802 41.69427584 -10.35416055 39.59992575 -5.59643555 37.32617188 C-4.80586761 36.95166901 -4.01529968 36.57716614 -3.20077515 36.1913147 C-0.69310313 35.00249723 1.81228064 33.80894405 4.31762695 32.61523438 C6.02450895 31.80502403 7.73153868 30.99512485 9.4387207 30.18554688 C13.60840814 28.20737367 17.77605091 26.2249521 21.94262695 24.24023438 C20.67316181 19.41581254 20.67316181 19.41581254 16.94262695 16.24023438 C12.4106595 15.80613125 7.86925524 15.82615989 3.3190918 15.81469727 C1.08180932 15.80280973 -1.15270473 15.7536343 -3.3894043 15.703125 C-4.8177763 15.69365888 -6.24616519 15.68642474 -7.67456055 15.68164062 C-8.96990723 15.66818604 -10.26525391 15.65473145 -11.59985352 15.64086914 C-15.97847421 16.39990839 -17.43635087 17.69791131 -20.05737305 21.24023438 Z " fill="#005DA7" transform="translate(1336.057373046875,505.759765625)"/>
<path d="M0 0 C2.40731896 0.0160326 4.812948 0.00012082 7.22021484 -0.01904297 C27.42776893 -0.04734742 27.42776893 -0.04734742 35.04443359 5.70361328 C39.27486354 10.25132547 40.91834211 14.29779309 40.93261719 20.48486328 C40.94207367 21.66628906 40.95153015 22.84771484 40.96127319 24.06494141 C40.9552005 25.32757812 40.94912781 26.59021484 40.94287109 27.89111328 C40.94574127 29.20015625 40.94861145 30.50919922 40.9515686 31.85791016 C40.955978 34.62169072 40.94960611 37.38517931 40.93554688 40.14892578 C40.9184553 43.67955774 40.928304 47.20950541 40.94626427 50.7401123 C40.95975309 54.12383317 40.95029021 57.50737302 40.94287109 60.89111328 C40.94894379 62.15375 40.95501648 63.41638672 40.96127319 64.71728516 C40.94708847 66.48942383 40.94708847 66.48942383 40.93261719 68.29736328 C40.93023041 69.33183594 40.92784363 70.36630859 40.92538452 71.43212891 C40.22733179 76.85415828 37.77959518 80.65467271 33.66943359 84.14111328 C33.01201172 84.71345703 32.35458984 85.28580078 31.67724609 85.87548828 C26.30358945 89.69413073 21.30418885 89.71110764 14.93115234 89.72705078 C13.53857964 89.73703598 13.53857964 89.73703598 12.11787415 89.7472229 C10.15697199 89.75732889 8.19603559 89.76204056 6.23510742 89.76171875 C3.25234532 89.76608341 0.27107396 89.80240116 -2.71142578 89.84033203 C-4.62222805 89.84620251 -6.5330373 89.85017036 -8.44384766 89.85205078 C-9.76924309 89.87360733 -9.76924309 89.87360733 -11.12141418 89.89559937 C-18.15015808 89.84436475 -23.59676324 88.17050525 -28.70556641 83.20361328 C-33.70174854 75.17403485 -35.04945007 68.67634612 -34.95166016 59.23486328 C-34.95311539 58.09255249 -34.95457062 56.9502417 -34.95606995 55.77331543 C-34.95441758 53.36968421 -34.94293112 50.96604168 -34.92211914 48.5625 C-34.89315291 44.90204512 -34.90152839 41.24304002 -34.91455078 37.58251953 C-34.90831264 35.23746047 -34.89992112 32.89240595 -34.88916016 30.54736328 C-34.89209579 29.46273804 -34.89503143 28.37811279 -34.89805603 27.26062012 C-34.81317423 20.3587423 -34.53399384 13.06234097 -29.90794373 7.54547119 C-21.60841841 -0.5013953 -10.78747047 -0.08542362 0 0 Z M-17.45556641 20.39111328 C-18.60293888 22.68585823 -18.59374312 24.00982157 -18.61669922 26.56201172 C-18.62630676 27.42340759 -18.63591431 28.28480347 -18.64581299 29.17230225 C-18.65006287 30.10560364 -18.65431274 31.03890503 -18.65869141 32.00048828 C-18.66439148 32.96005432 -18.67009155 33.91962036 -18.67596436 34.90826416 C-18.68542242 36.94257502 -18.69195153 38.97690126 -18.69580078 41.01123047 C-18.70548398 44.11469545 -18.73649061 47.21749195 -18.76806641 50.32080078 C-18.7745987 52.29735935 -18.77984828 54.27392266 -18.78369141 56.25048828 C-18.79603821 57.17569275 -18.80838501 58.10089722 -18.82110596 59.05413818 C-18.80338889 64.21384821 -18.49862139 68.00780822 -15.45556641 72.39111328 C-10.86969041 75.91700133 -4.09935604 74.72423892 1.38891602 74.70678711 C3.47188722 74.70362852 5.5534348 74.72709847 7.63623047 74.75244141 C9.61526367 74.7534082 9.61526367 74.7534082 11.63427734 74.75439453 C12.83947021 74.75737549 14.04466309 74.76035645 15.28637695 74.76342773 C18.90503495 74.34990556 20.73009185 73.68788934 23.54443359 71.39111328 C26.3206818 66.92732111 25.85037582 61.76353792 25.84521484 56.67236328 C25.85164253 55.26911804 25.85164253 55.26911804 25.85820007 53.83752441 C25.86393078 51.86402189 25.86445293 49.89049825 25.86010742 47.91699219 C25.85694448 44.90148891 25.8804327 41.88696434 25.90576172 38.87158203 C25.90803457 36.95101035 25.90873827 35.03043604 25.90771484 33.10986328 C25.91692459 32.21078247 25.92613434 31.31170166 25.93562317 30.38537598 C25.90018435 25.58128159 25.73093218 22.2528561 22.54443359 18.39111328 C17.60362634 15.09724178 11.7078595 16.01924013 5.92089844 16.02050781 C3.68395458 16.01614162 1.44899621 15.97983631 -0.78759766 15.94189453 C-2.21597635 15.93602451 -3.64436439 15.93205636 -5.07275391 15.93017578 C-6.36810059 15.92195801 -7.66344727 15.91374023 -8.99804688 15.90527344 C-13.00141203 16.4678138 -14.62407414 17.56620129 -17.45556641 20.39111328 Z " fill="#005DA7" transform="translate(1538.45556640625,505.60888671875)"/>
<path d="M0 0 C5.28 0 10.56 0 16 0 C16.01981934 2.11003418 16.03963867 4.22006836 16.06005859 6.39404297 C16.12687877 13.35512932 16.20451923 20.31606442 16.28752708 27.27697563 C16.33753492 31.49858165 16.38386433 35.72016209 16.421875 39.94189453 C16.45867145 44.01389539 16.50501554 48.08568458 16.55806351 52.15750504 C16.57663758 53.71324079 16.59173435 55.26902197 16.60334396 56.82482529 C16.62015532 58.9991614 16.6491766 61.17300953 16.68115234 63.34716797 C16.69447601 64.58626923 16.70779968 65.82537048 16.7215271 67.10202026 C16.70198719 70.12613972 16.70198719 70.12613972 19 72 C21.61742648 72.22416247 24.12609935 72.32811931 26.74609375 72.3359375 C27.51301041 72.3425943 28.27992706 72.3492511 29.07008362 72.35610962 C30.69326374 72.36624115 32.31648556 72.37092648 33.93969727 72.37060547 C36.42468838 72.37497746 38.90790165 72.41128476 41.39257812 72.44921875 C42.96874392 72.45508707 44.54491816 72.45905636 46.12109375 72.4609375 C46.86491806 72.47530853 47.60874237 72.48967957 48.37510681 72.50448608 C52.42312485 72.51652895 52.42312485 72.51652895 55.69308472 70.38815308 C57.42208243 67.22872013 57.39906469 64.90101299 57.43237305 61.30371094 C57.4425647 60.63988403 57.45275635 59.97605713 57.46325684 59.29211426 C57.49336097 57.10611504 57.50264832 54.92055418 57.51171875 52.734375 C57.52856745 51.21550035 57.54671795 49.69663963 57.56611633 48.17779541 C57.61360218 44.18628288 57.64342047 40.19482682 57.66955566 36.203125 C57.69936847 32.12749072 57.74589629 28.05205099 57.79101562 23.9765625 C57.87703274 15.98445443 57.94283948 7.99236661 58 0 C63.28 0 68.56 0 74 0 C74.04535438 8.69338774 74.08197538 17.38669567 74.10362434 26.0801754 C74.11401967 30.11778569 74.12810029 34.15531017 74.15087891 38.19287109 C74.17276009 42.09620623 74.18460052 45.99945932 74.18975449 49.9028511 C74.19342303 51.38503942 74.20058601 52.86722372 74.21146011 54.34937668 C74.37194609 77.15015795 74.37194609 77.15015795 68 84 C59.67485651 90.65670982 49.38466375 89.72775135 39.31347656 89.59692383 C36.37468119 89.56249627 33.43888099 89.57632966 30.5 89.59570312 C28.61196651 89.58880621 26.72394068 89.57913522 24.8359375 89.56640625 C23.96802582 89.57136612 23.10011414 89.57632599 22.2059021 89.58143616 C15.41432827 89.45154222 10.08603067 87.72296824 4.94140625 83.18359375 C4.48636719 82.60738281 4.03132813 82.03117188 3.5625 81.4375 C3.08941406 80.85871094 2.61632813 80.27992188 2.12890625 79.68359375 C-0.39466203 75.92007151 -0.13611959 72.11416879 -0.11352539 67.7746582 C-0.11367142 67.04270233 -0.11381744 66.31074646 -0.1139679 65.55661011 C-0.1132714 63.13797031 -0.10549128 60.71940759 -0.09765625 58.30078125 C-0.09579114 56.62355084 -0.09436767 54.94631989 -0.09336853 53.26908875 C-0.0895507 48.85499568 -0.07972666 44.44093553 -0.06866455 40.02685547 C-0.05843467 35.52246547 -0.05386753 31.01807015 -0.04882812 26.51367188 C-0.03810375 17.67576446 -0.02051287 8.83789012 0 0 Z " fill="#005DA7" transform="translate(1133,506)"/>
<path d="M0 0 C2.02149646 0.60290245 4.03631295 1.23424778 6.01953125 1.953125 C9.10209703 3.08147953 9.10209703 3.08147953 12.76171875 3.984375 C17.02949822 5.29600309 20.84899168 6.73591962 24 10 C26.90524045 15.87974843 27.50509311 22.61216796 28.47558594 29.02832031 C29.32209118 33.82518337 30.73444628 38.41973182 32.1875 43.0625 C32.43830322 43.88838623 32.68910645 44.71427246 32.94750977 45.56518555 C33.91937365 48.72843619 34.9209338 51.80693137 36.17578125 54.87109375 C37 57 37 57 37 60 C24.12839292 63.85146531 11.26657274 67.35342211 -1.9375 69.875 C-2.99501465 70.07762451 -4.0525293 70.28024902 -5.14208984 70.48901367 C-11.41049723 71.64298633 -17.64742941 72.48109973 -24 73 C-21.99802129 66.10768455 -19.7685641 59.32775553 -17.375 52.5625 C-14.25865759 43.66381554 -11.19268581 34.74936494 -8.1875 25.8125 C-7.8147998 24.71558838 -7.44209961 23.61867676 -7.05810547 22.48852539 C-4.93221898 16.13831848 -3.12145965 9.79643804 -1.60668945 3.2722168 C-1 1 -1 1 0 0 Z " fill="#FBEB09" transform="translate(498,554)"/>
<path d="M0 0 C1.83332235 0.0150724 3.66665668 0.02875629 5.5 0.04101562 C9.95863256 0.07382277 14.41668224 0.12546404 18.875 0.1875 C18.875 5.4675 18.875 10.7475 18.875 16.1875 C17.17972168 16.20937378 17.17972168 16.20937378 15.45019531 16.23168945 C11.25293501 16.28970685 7.05620927 16.36693937 2.859375 16.44995117 C1.04370811 16.48318436 -0.77206168 16.51122134 -2.58789062 16.53393555 C-5.19966442 16.56751141 -7.81049654 16.61982762 -10.421875 16.67578125 C-11.63771271 16.68536613 -11.63771271 16.68536613 -12.87811279 16.69514465 C-17.29272153 16.81004935 -19.94622726 17.05152272 -23.125 20.1875 C-23.71445789 22.34457706 -23.71445789 22.34457706 -23.61083984 24.77905273 C-23.6169931 25.70689072 -23.62314636 26.6347287 -23.62948608 27.59068298 C-23.61511505 28.59071854 -23.60074402 29.59075409 -23.5859375 30.62109375 C-23.58502106 31.65057632 -23.58410461 32.6800589 -23.5831604 33.74073792 C-23.57711627 35.91875821 -23.56134611 38.09676987 -23.53662109 40.2746582 C-23.50017984 43.60854743 -23.49560124 46.94132331 -23.49609375 50.27539062 C-23.4862602 52.3906346 -23.47460217 54.50587105 -23.4609375 56.62109375 C-23.45871185 57.61910507 -23.45648621 58.61711639 -23.45419312 59.64537048 C-23.43505356 61.0418557 -23.43505356 61.0418557 -23.41552734 62.46655273 C-23.40790375 63.28357162 -23.40028015 64.10059052 -23.39242554 64.94236755 C-23.09552536 67.43495008 -22.42343101 69.05043566 -21.125 71.1875 C-17.53116647 73.92269753 -13.18657773 73.53637769 -8.859375 73.6015625 C-8.06597717 73.62092865 -7.27257935 73.6402948 -6.45513916 73.6602478 C-3.92853443 73.71988361 -1.40188375 73.76636443 1.125 73.8125 C2.84116537 73.85069455 4.55731187 73.88974715 6.2734375 73.9296875 C10.47380456 74.02557186 14.67426134 74.10966167 18.875 74.1875 C18.875 79.1375 18.875 84.0875 18.875 89.1875 C13.04008882 89.28683715 7.20567663 89.35918936 1.37011719 89.40722656 C-0.61239199 89.42726497 -2.59484263 89.45450353 -4.57714844 89.48925781 C-7.43699641 89.53811954 -10.29605881 89.56054673 -13.15625 89.578125 C-14.03365845 89.59877014 -14.91106689 89.61941528 -15.81506348 89.64068604 C-22.83228494 89.64320913 -28.05536216 87.87744396 -33.3671875 83.22265625 C-33.90601563 82.57167969 -34.44484375 81.92070313 -35 81.25 C-35.55429688 80.60160156 -36.10859375 79.95320312 -36.6796875 79.28515625 C-39.48619212 75.21193197 -40.37563748 71.60828049 -40.3996582 66.69799805 C-40.40919022 65.62305588 -40.41872223 64.54811371 -40.42854309 63.44059753 C-40.42763168 62.28844254 -40.42672028 61.13628754 -40.42578125 59.94921875 C-40.43006638 58.75448441 -40.4343515 57.55975006 -40.43876648 56.32881165 C-40.44450507 53.80295444 -40.44501352 51.2770807 -40.44067383 48.7512207 C-40.43752015 44.89961296 -40.46095844 41.0487781 -40.48632812 37.19726562 C-40.48860187 34.7395843 -40.48930426 32.28190091 -40.48828125 29.82421875 C-40.497491 28.67813644 -40.50670074 27.53205414 -40.51618958 26.35124207 C-40.47530712 19.23382866 -40.0321639 13.11255683 -35.65234375 7.19921875 C-25.26446434 -1.45309358 -12.75069143 -0.18277677 0 0 Z " fill="#005DA7" transform="translate(1431.125,505.8125)"/>
<path d="M0 0 C5.28 0 10.56 0 16 0 C16 9.57 16 19.14 16 29 C20.95 29 25.9 29 31 29 C31 34.28 31 39.56 31 45 C26.05 45 21.1 45 16 45 C16 69.09 16 93.18 16 118 C10.72 118 5.44 118 0 118 C0 79.06 0 40.12 0 0 Z " fill="#005DA7" transform="translate(1261,477)"/>
<path d="M0 0 C4.95 0 9.9 0 15 0 C15 9.57 15 19.14 15 29 C20.28 29 25.56 29 31 29 C31 34.28 31 39.56 31 45 C25.72 45 20.44 45 15 45 C15 69.09 15 93.18 15 118 C10.05 118 5.1 118 0 118 C0 79.06 0 40.12 0 0 Z " fill="#005DA7" transform="translate(1466,477)"/>
<path d="M0 0 C7.48973237 2.12485365 14.53560968 4.22936972 21 8.69921875 C26.31381973 12.27459649 31.83790163 15.39748986 37.4375 18.5 C38.52877197 19.10674561 39.62004395 19.71349121 40.74438477 20.33862305 C44.15939758 22.23221405 47.5788677 24.11749042 51 26 C52.03898437 26.57314941 53.07796875 27.14629883 54.1484375 27.73681641 C80.79376783 42.39429058 107.91983293 56.290288 136 68 C136.99692871 68.41797852 137.99385742 68.83595703 139.02099609 69.26660156 C160.79097292 78.33945613 183.03842184 86.51334491 205.88330078 92.44238281 C209.8101587 93.47686303 213.7155248 94.58950434 217.625 95.6875 C220.41363336 96.46990889 223.20524239 97.2397802 226 98 C226.67482422 98.19053955 227.34964844 98.3810791 228.04492188 98.57739258 C239.09052552 101.56380639 250.2110417 100.52540609 261 97 C261.87398437 96.7215625 262.74796875 96.443125 263.6484375 96.15625 C272.46412257 93.00972856 279.88945904 87.68244916 284.9140625 79.6875 C287.06386334 74.36712958 286.98385674 68.67435632 287 63 C290.87751221 68.81626831 290.6062123 75.18230803 290 82 C287.92796152 89.70745524 281.8203774 95.63957157 275.19921875 99.73046875 C258.35278922 108.57976052 243.14270104 108.60696409 225 105 C217.15968047 103.49623501 212.19094754 104.435126 205 108 C203.7891546 106.96125445 202.58148205 105.91881031 201.375 104.875 C200.70210937 104.29492188 200.02921875 103.71484375 199.3359375 103.1171875 C197 101 197 101 195.71728516 99.53100586 C191.59676686 94.91422076 187.51843422 93.41095504 181.625 91.8125 C179.99158744 91.34192162 178.35876694 90.86928302 176.7265625 90.39453125 C175.93064697 90.16580322 175.13473145 89.9370752 174.31469727 89.70141602 C170.80743448 88.63862032 167.40657238 87.34681457 164 86 C163.35708008 85.74694092 162.71416016 85.49388184 162.05175781 85.2331543 C160.13620932 84.47393123 158.22387355 83.70716741 156.3125 82.9375 C155.67505859 82.68162109 155.03761719 82.42574219 154.38085938 82.16210938 C152.58701 81.44197789 150.79349518 80.72101318 149 80 C147.3334852 79.33295379 145.66688638 78.66611712 144 78 C143.67 78.99 143.34 79.98 143 81 C142.91363281 80.37996094 142.82726562 79.75992188 142.73828125 79.12109375 C142.20393186 76.89623876 142.20393186 76.89623876 140.35546875 75.91015625 C139.28232422 75.49056641 139.28232422 75.49056641 138.1875 75.0625 C137.3725708 74.7315332 136.5576416 74.40056641 135.71801758 74.05957031 C134.37259888 73.53508301 134.37259888 73.53508301 133 73 C131.06446047 72.20786283 129.13094259 71.41077225 127.19921875 70.609375 C126.18134277 70.18720703 125.1634668 69.76503906 124.11474609 69.33007812 C114.57809071 65.25767661 105.30818855 60.5637711 96 56 C94.91992676 55.4735791 93.83985352 54.9471582 92.72705078 54.40478516 C79.09873531 47.75163962 65.75683385 40.75066248 52.60546875 33.19921875 C46.96948435 29.96529582 41.2745951 26.84702038 35.5625 23.75 C23.2434842 17.05976309 10.95489568 10.32812115 -1 3 C-0.67 2.01 -0.34 1.02 0 0 Z " fill="#80B541" transform="translate(379,487)"/>
<path d="M0 0 C0.33 0 0.66 0 1 0 C1.20679881 24.90546946 0.1039793 49.70310085 -3.875 74.3125 C-3.99788391 75.076763 -4.12076782 75.841026 -4.24737549 76.62844849 C-6.07878129 87.84797122 -8.44431298 98.92508444 -11 110 C-18.54076972 109.42528303 -25.85326057 108.16441742 -33.265625 106.71875 C-36.50440907 106.0953857 -39.7441857 105.52578368 -43 105 C-42.42235371 100.13261981 -40.15352976 96.33220653 -37.8125 92.125 C-21.95281129 62.78839538 -10.27397625 31.64638364 0 0 Z " fill="#DB2026" transform="translate(517,411)"/>
<path d="M0 0 C4.95 0 9.9 0 15 0 C15 38.94 15 77.88 15 118 C10.05 118 5.1 118 0 118 C0 79.06 0 40.12 0 0 Z " fill="#005DA7" transform="translate(811,477)"/>
<path d="M0 0 C0.66 0 1.32 0 2 0 C2.08451416 1.18811279 2.16902832 2.37622559 2.25610352 3.6003418 C4.96150666 40.93726279 8.57066995 78.4775995 18.38525391 114.72119141 C19.30629592 118.13541147 20.15079378 121.56729316 21 125 C17.37441264 124.69408272 13.74966425 124.37915282 10.125 124.0625 C9.09246094 123.97548828 8.05992187 123.88847656 6.99609375 123.79882812 C6.00996094 123.71181641 5.02382813 123.62480469 4.0078125 123.53515625 C3.09660645 123.456604 2.18540039 123.37805176 1.24658203 123.29711914 C-1 123 -1 123 -3 122 C-7.28143559 109.15569324 -5.19879772 92.68534325 -5.1875 79.3125 C-5.18722809 78.11222168 -5.18695618 76.91194336 -5.18667603 75.67529297 C-5.16932093 58.93665386 -4.90866682 42.22353712 -4.1875 25.5 C-4.15256439 24.59762604 -4.11762878 23.69525208 -4.08163452 22.76553345 C-3.97989703 20.22811328 -3.85890553 17.69244303 -3.73046875 15.15625 C-3.70218994 14.42641403 -3.67391113 13.69657806 -3.64477539 12.94462585 C-3.35587457 7.97296587 -2.14514499 4.41056501 0 0 Z " fill="#087EBE" transform="translate(521,401)"/>
<path d="M0 0 C0 5.28 0 10.56 0 16 C-1.753125 16.12375 -3.50625 16.2475 -5.3125 16.375 C-9.16904361 16.64722661 -10.71508627 16.81005752 -14 19 C-15.11878427 22.35635282 -15.15885588 24.95288354 -15.20532227 28.4909668 C-15.22017166 29.47185776 -15.22017166 29.47185776 -15.23532104 30.4725647 C-15.26687783 32.6314127 -15.29167032 34.79028271 -15.31640625 36.94921875 C-15.33698081 38.44709338 -15.35797742 39.94496228 -15.37937927 41.44282532 C-15.43454809 45.3833857 -15.48398021 49.32399803 -15.53222656 53.26464844 C-15.58247951 57.28650531 -15.63814577 61.30828684 -15.69335938 65.33007812 C-15.80087748 73.21999008 -15.9018362 81.10996611 -16 89 C-20.95 89 -25.9 89 -31 89 C-31.09061152 79.50704975 -31.16389432 70.01438989 -31.20724869 60.52110386 C-31.22806369 56.11229358 -31.25626894 51.70379624 -31.30175781 47.29516602 C-31.3454343 43.03520091 -31.36918283 38.77553555 -31.37950897 34.51536369 C-31.38686144 32.89555078 -31.40121867 31.27575302 -31.42292023 29.6560688 C-31.64219433 12.60197976 -31.64219433 12.60197976 -27 6 C-19.17335247 -0.93725577 -9.85106939 -0.20523061 0 0 Z " fill="#005DA7" transform="translate(1027,506)"/>
<path d="M0 0 C5.28 0 10.56 0 16 0 C16 29.37 16 58.74 16 89 C10.72 89 5.44 89 0 89 C0 59.63 0 30.26 0 0 Z " fill="#005DA7" transform="translate(1226,506)"/>
<path d="M0 0 C1.32 0.33 2.64 0.66 4 1 C4.27972656 2.12792969 4.55945313 3.25585938 4.84765625 4.41796875 C13.45759389 38.49851375 25.93528872 74.72074919 57.46484375 94.1875 C73.46917433 103.57764395 91.38224751 106.59223523 109.72265625 103.33984375 C116.45851583 101.37273432 121.17119984 98.02690478 126 93 C126.66 92.34 127.32 91.68 128 91 C127.72937831 97.49492063 125.39793809 101.27170036 121 106 C111.51954377 113.79504179 98.81491365 114.73759393 87 114 C67.94892408 111.58293043 52.90192461 104.3054724 39 91 C38.32195313 90.39671875 37.64390625 89.7934375 36.9453125 89.171875 C17.6142759 71.31589741 8.61612673 43.45019847 2.5625 18.6875 C2.3032373 17.63183838 2.04397461 16.57617676 1.77685547 15.48852539 C0.54099996 10.20152704 -0.31401967 5.43024266 0 0 Z " fill="#015EA6" transform="translate(523,565)"/>
<path d="M0 0 C3.88255464 1.12947044 4.37096746 1.70055367 6.4375 5 C7.16346098 6.64488348 7.82363372 8.31973206 8.43041992 10.01220703 C8.79056686 11.00648712 9.15071381 12.00076721 9.52177429 13.025177 C9.90001846 14.09194672 10.27826263 15.15871643 10.66796875 16.2578125 C11.06325272 17.35721161 11.45853668 18.45661072 11.86579895 19.58932495 C12.69854671 21.90978068 13.52795225 24.23143817 14.35424805 26.55419922 C15.62357568 30.12099767 16.90367641 33.6837863 18.18554688 37.24609375 C18.99282271 39.49977257 19.7994846 41.75367141 20.60546875 44.0078125 C20.98978561 45.07863068 21.37410248 46.14944885 21.77006531 47.25271606 C22.12075577 48.24069183 22.47144623 49.2286676 22.83276367 50.24658203 C23.14348312 51.11832062 23.45420258 51.9900592 23.77433777 52.88821411 C24.4375 55 24.4375 55 24.4375 57 C21.1375 57 17.8375 57 14.4375 57 C12.4575 51.555 12.4575 51.555 10.4375 46 C2.8475 45.67 -4.7425 45.34 -12.5625 45 C-13.5525 48.3 -14.5425 51.6 -15.5625 55 C-15.8925 55.66 -16.2225 56.32 -16.5625 57 C-19.8625 57 -23.1625 57 -26.5625 57 C-24.56662321 50.15754123 -22.36752378 43.44728525 -19.91015625 36.7578125 C-19.56875107 35.82701874 -19.22734589 34.89622498 -18.87559509 33.93722534 C-18.15884995 31.98873851 -17.44028741 30.04091932 -16.7199707 28.09375 C-15.62152987 25.11559158 -14.53834793 22.132142 -13.45507812 19.1484375 C-12.75354068 17.24705003 -12.05109851 15.34599608 -11.34765625 13.4453125 C-11.02773209 12.55675568 -10.70780792 11.66819885 -10.37818909 10.75271606 C-6.34943403 0 -6.34943403 0 0 0 Z M-1.5625 14 C-2.73711555 17.10121711 -3.90080456 20.20642241 -5.0625 23.3125 C-5.39636719 24.19357422 -5.73023438 25.07464844 -6.07421875 25.98242188 C-6.54794922 27.25375977 -6.54794922 27.25375977 -7.03125 28.55078125 C-7.32451172 29.33106689 -7.61777344 30.11135254 -7.91992188 30.9152832 C-8.70977883 33.11423319 -8.70977883 33.11423319 -8.5625 36 C-3.2825 36 1.9975 36 7.4375 36 C4.7975 28.74 2.1575 21.48 -0.5625 14 C-0.8925 14 -1.2225 14 -1.5625 14 Z " fill="#005DA7" transform="translate(1492.5625,608)"/>
<path d="M0 0 C0.66163651 0.0028299 1.32327301 0.00565979 2.00495911 0.00857544 C4.11416862 0.01975332 6.2229505 0.04485269 8.33203125 0.0703125 C9.76366573 0.08034543 11.19530689 0.08947074 12.62695312 0.09765625 C16.13295102 0.11968455 19.63869938 0.15419765 23.14453125 0.1953125 C23.14453125 3.1653125 23.14453125 6.1353125 23.14453125 9.1953125 C22.36215088 9.22036865 21.57977051 9.2454248 20.77368164 9.27124023 C17.25128176 9.38681038 13.72917565 9.50971199 10.20703125 9.6328125 C8.97533203 9.67212891 7.74363281 9.71144531 6.47460938 9.75195312 C4.71987305 9.81479492 4.71987305 9.81479492 2.9296875 9.87890625 C1.30365601 9.93389282 1.30365601 9.93389282 -0.35522461 9.98999023 C-2.79473175 9.91895515 -2.79473175 9.91895515 -3.85546875 11.1953125 C-3.95370871 12.67180126 -3.98520394 14.15306667 -3.98046875 15.6328125 C-3.98304687 16.43589844 -3.985625 17.23898437 -3.98828125 18.06640625 C-3.99125201 20.24929181 -3.99125201 20.24929181 -2.85546875 22.1953125 C-0.48745629 22.42857059 1.8912976 22.55602022 4.26953125 22.6328125 C10.63441859 22.94086345 15.90708699 23.20453066 20.78515625 27.7109375 C22.89606511 31.56880541 22.65765521 35.30518713 22.64453125 39.6328125 C22.67289063 40.47908203 22.70125 41.32535156 22.73046875 42.19726562 C22.74426173 46.60067558 22.61544725 48.58167025 19.86328125 52.16796875 C15.31128344 55.56234643 12.5839426 56.44474091 6.84765625 56.390625 C5.03974609 56.38095703 5.03974609 56.38095703 3.1953125 56.37109375 C1.94105469 56.35433594 0.68679688 56.33757813 -0.60546875 56.3203125 C-1.87519531 56.31128906 -3.14492187 56.30226563 -4.453125 56.29296875 C-7.58742968 56.26940255 -10.72135416 56.23650082 -13.85546875 56.1953125 C-13.85546875 53.2253125 -13.85546875 50.2553125 -13.85546875 47.1953125 C-13.13891113 47.17025635 -12.42235352 47.1452002 -11.68408203 47.11938477 C-8.44935361 47.00361499 -5.21493034 46.88080281 -1.98046875 46.7578125 C-0.85253906 46.71849609 0.27539062 46.67917969 1.4375 46.63867188 C2.51386719 46.59677734 3.59023437 46.55488281 4.69921875 46.51171875 C6.19171143 46.45673218 6.19171143 46.45673218 7.71435547 46.40063477 C10.15232626 46.34571718 10.15232626 46.34571718 12.14453125 45.1953125 C12.61352088 42.3793276 12.61352088 42.3793276 12.76953125 39.1328125 C12.84429688 38.02808594 12.9190625 36.92335938 12.99609375 35.78515625 C13.04507812 34.93050781 13.0940625 34.07585938 13.14453125 33.1953125 C11.53384766 33.13923828 11.53384766 33.13923828 9.890625 33.08203125 C8.45439505 33.01632138 7.01819863 32.94987582 5.58203125 32.8828125 C4.87755859 32.86025391 4.17308594 32.83769531 3.44726562 32.81445312 C-2.27893314 32.52418498 -7.1413193 31.36663206 -11.73046875 27.6953125 C-14.40488994 24.12941758 -14.08757345 20.16068899 -14.16796875 15.8828125 C-14.20535156 14.58730469 -14.24273438 13.29179688 -14.28125 11.95703125 C-13.78896109 7.60772652 -12.60801216 5.55291951 -9.85546875 2.1953125 C-6.1761743 -0.25755046 -4.38168968 -0.03697628 0 0 Z " fill="#005DA7" transform="translate(1545.85546875,608.8046875)"/>
<path d="M0 0 C1.29550781 0.00644531 2.59101562 0.01289062 3.92578125 0.01953125 C5.28906519 0.03624057 6.65234644 0.05317044 8.015625 0.0703125 C9.39452485 0.0803491 10.77343165 0.08947377 12.15234375 0.09765625 C15.52361382 0.12123157 18.89453136 0.1541398 22.265625 0.1953125 C22.265625 3.1653125 22.265625 6.1353125 22.265625 9.1953125 C13.685625 9.5253125 5.105625 9.8553125 -3.734375 10.1953125 C-3.734375 13.8253125 -3.734375 17.4553125 -3.734375 21.1953125 C-1.50852651 23.42116099 5.38971417 22.60523928 8.43359375 22.71875 C13.63783474 23.36596448 16.78553473 24.81619345 20.61328125 28.3828125 C22.74419632 32.00990198 22.81996337 35.10973842 22.703125 39.1953125 C22.71021484 39.89398437 22.71730469 40.59265625 22.72460938 41.3125 C22.66984979 45.7775122 21.96333931 48.63353811 19.265625 52.1953125 C15.10700122 55.8341083 11.70520926 56.31940803 6.28515625 56.29296875 C5.12177734 56.28974609 3.95839844 56.28652344 2.75976562 56.28320312 C1.54482422 56.27482422 0.32988281 56.26644531 -0.921875 56.2578125 C-2.14841797 56.25330078 -3.37496094 56.24878906 -4.63867188 56.24414062 C-7.67062168 56.23234315 -10.70247406 56.21588171 -13.734375 56.1953125 C-13.734375 53.2253125 -13.734375 50.2553125 -13.734375 47.1953125 C-13.01781738 47.17549316 -12.30125977 47.15567383 -11.56298828 47.13525391 C-8.3280687 47.04021731 -5.09381406 46.93045231 -1.859375 46.8203125 C-0.73144531 46.789375 0.39648438 46.7584375 1.55859375 46.7265625 C2.63496094 46.68789063 3.71132812 46.64921875 4.8203125 46.609375 C5.81530762 46.5779541 6.81030273 46.5465332 7.83544922 46.51416016 C10.44417017 46.42284167 10.44417017 46.42284167 12.265625 44.1953125 C12.54652787 41.79039828 12.54652787 41.79039828 12.453125 39.1328125 C12.44667969 38.23433594 12.44023438 37.33585938 12.43359375 36.41015625 C12.50957243 34.22205651 12.50957243 34.22205651 11.265625 33.1953125 C9.08041428 33.03520208 6.89202354 32.91780321 4.703125 32.8203125 C-7.68116919 32.00057816 -7.68116919 32.00057816 -12.41796875 27.6484375 C-14.4167816 23.92364679 -14.16952146 20.4179428 -14.109375 16.2578125 C-14.12097656 15.45923828 -14.13257813 14.66066406 -14.14453125 13.83789062 C-14.12136167 9.17694331 -13.84945431 5.90944552 -10.734375 2.1953125 C-7.21810277 -0.13173713 -4.14614539 -0.0363697 0 0 Z " fill="#005DA7" transform="translate(1428.734375,608.8046875)"/>
<path d="M0 0 C4.54154478 -0.08735463 9.08287232 -0.14051247 13.625 -0.1875 C15.55279297 -0.22520508 15.55279297 -0.22520508 17.51953125 -0.26367188 C19.38544922 -0.27817383 19.38544922 -0.27817383 21.2890625 -0.29296875 C23.00150146 -0.31653442 23.00150146 -0.31653442 24.74853516 -0.34057617 C28.52499311 0.05499064 30.83674228 0.90229372 34 3 C37.17037171 8.41103406 36.32922037 14.86131705 36.3125 20.9375 C36.32861328 22.10474609 36.34472656 23.27199219 36.36132812 24.47460938 C36.3676369 35.54650197 36.3676369 35.54650197 33 40 C28.68619899 43.80771263 24.0238182 43.45067646 18.5625 43.375 C17.72912109 43.38660156 16.89574219 43.39820313 16.03710938 43.41015625 C10.98888751 43.38621211 7.27840717 42.95552109 3 40 C-1.32974656 34.65632544 -0.60865754 28.53895599 0 22 C1.50918914 17.6233515 3.10265439 15.42439093 7 13 C9.38183594 12.65942383 9.38183594 12.65942383 11.984375 12.70703125 C12.91894531 12.71669922 13.85351562 12.72636719 14.81640625 12.73632812 C15.78449219 12.76146484 16.75257812 12.78660156 17.75 12.8125 C19.22533203 12.83280273 19.22533203 12.83280273 20.73046875 12.85351562 C23.15420415 12.88881274 25.57682145 12.93811946 28 13 C27.34 11.68 26.68 10.36 26 9 C13.13 8.505 13.13 8.505 0 8 C0 5.36 0 2.72 0 0 Z M8 23 C7.68100485 25.36955386 7.68100485 25.36955386 7.75 28 C7.74484375 28.886875 7.7396875 29.77375 7.734375 30.6875 C7.77947138 33.19400239 7.77947138 33.19400239 10 35 C12.52475716 35.19893799 14.91514749 35.27847435 17.4375 35.25 C18.11876953 35.25773438 18.80003906 35.26546875 19.50195312 35.2734375 C23.21409442 35.25889434 24.83589372 35.10940418 28 33 C28.44017701 30.63500496 28.44017701 30.63500496 28.3125 28 C28.30669922 26.6696875 28.30669922 26.6696875 28.30078125 25.3125 C28.21402407 22.80735945 28.21402407 22.80735945 26 21 C23.29077199 20.80147898 20.70696821 20.72160523 18 20.75 C17.26265625 20.74226562 16.5253125 20.73453125 15.765625 20.7265625 C11.41578097 20.58991135 11.41578097 20.58991135 8 23 Z " fill="#005DA7" transform="translate(1301,622)"/>
<path d="M0 0 C2.64 0 5.28 0 8 0 C8 4.29 8 8.58 8 13 C9.21816406 12.96519531 10.43632813 12.93039062 11.69140625 12.89453125 C13.31509028 12.86637488 14.93878935 12.83907671 16.5625 12.8125 C17.76229492 12.77479492 17.76229492 12.77479492 18.98632812 12.73632812 C24.42894777 12.6696838 28.23928294 13.2734632 33 16 C36.35773325 20.85037146 35.41024 27.19718752 35.42553711 32.84448242 C35.43744635 34.92811287 35.48666443 37.00878986 35.53710938 39.09179688 C35.54419922 40.41115234 35.55128906 41.73050781 35.55859375 43.08984375 C35.57204834 44.29503662 35.58550293 45.50022949 35.59936523 46.74194336 C34.83001068 50.92403565 33.27110999 52.3725746 30 55 C25.85858936 56.38047021 21.96298777 56.22394602 17.625 56.25 C16.77421875 56.270625 15.9234375 56.29125 15.046875 56.3125 C10.26243483 56.3423096 6.73640661 56.33057968 3 53 C-0.63432528 47.50585568 -0.39153199 42.47990075 -0.29296875 36.1328125 C-0.28872391 35.09808807 -0.28447906 34.06336365 -0.28010559 32.99728394 C-0.26336996 29.70625319 -0.22572649 26.41584434 -0.1875 23.125 C-0.17244658 20.8880297 -0.15875933 18.65104977 -0.14648438 16.4140625 C-0.11348322 10.94249767 -0.06333468 5.47129328 0 0 Z M8 23 C7.54704667 26.62644504 7.67595198 30.28601738 7.6875 33.9375 C7.67138672 34.95263672 7.65527344 35.96777344 7.63867188 37.01367188 C7.63802734 37.98755859 7.63738281 38.96144531 7.63671875 39.96484375 C7.63373779 40.8580835 7.63075684 41.75132324 7.62768555 42.67163086 C7.82575597 45.04940174 7.82575597 45.04940174 9.31738281 46.79199219 C12.07193441 48.76957798 14.74461102 48.35710451 18.0625 48.3125 C19.31160156 48.30863281 20.56070312 48.30476562 21.84765625 48.30078125 C25.09607867 48.32841879 25.09607867 48.32841879 27 46 C27.31081337 43.60823522 27.31081337 43.60823522 27.265625 40.84375 C27.26820312 39.82152344 27.27078125 38.79929687 27.2734375 37.74609375 C27.26570313 36.67488281 27.25796875 35.60367188 27.25 34.5 C27.25773437 33.42878906 27.26546875 32.35757813 27.2734375 31.25390625 C27.26957031 29.72056641 27.26957031 29.72056641 27.265625 28.15625 C27.26336914 27.21587891 27.26111328 26.27550781 27.25878906 25.30664062 C27.22098716 22.80508033 27.22098716 22.80508033 25 21 C22.45464859 20.80150929 20.04283241 20.72148225 17.5 20.75 C16.46552734 20.73839844 16.46552734 20.73839844 15.41015625 20.7265625 C11.24785614 20.6238695 11.24785614 20.6238695 8 23 Z " fill="#005DA7" transform="translate(1243,609)"/>
<path d="M0 0 C4.39577761 -0.05815112 8.79145598 -0.09364767 13.1875 -0.125 C14.43337891 -0.14175781 15.67925781 -0.15851562 16.96289062 -0.17578125 C18.16494141 -0.18222656 19.36699219 -0.18867187 20.60546875 -0.1953125 C22.26292114 -0.21102295 22.26292114 -0.21102295 23.95385742 -0.22705078 C28.06673142 0.07951112 30.77303904 0.82780209 33.78320312 3.70361328 C36.21977447 8.30200616 35.5178199 13.69684696 35.50097656 18.78955078 C35.50000589 20.86242375 35.54160417 22.93156915 35.5859375 25.00390625 C35.60781271 36.17120024 35.60781271 36.17120024 32.65625 39.8828125 C27.93421965 43.64654845 23.45637904 43.24719194 17.6875 43.3125 C16.42389648 43.35600586 16.42389648 43.35600586 15.13476562 43.40039062 C9.58016736 43.45684862 6.37091483 42.76101974 2 39 C-0.45389758 35.31915364 -0.3672715 32.44976696 -0.375 28.1875 C-0.39949219 27.48818359 -0.42398437 26.78886719 -0.44921875 26.06835938 C-0.47794651 20.95002949 0.65227463 18.06331722 4 14 C6.45275141 12.7736243 8.0505781 12.88584686 10.7890625 12.90234375 C11.73007813 12.90556641 12.67109375 12.90878906 13.640625 12.91210938 C14.62546875 12.92048828 15.6103125 12.92886719 16.625 12.9375 C18.11386719 12.94426758 18.11386719 12.94426758 19.6328125 12.95117188 C22.0886016 12.96297855 24.54427104 12.979446 27 13 C26.67 11.68 26.34 10.36 26 9 C13.13 8.505 13.13 8.505 0 8 C0 5.36 0 2.72 0 0 Z M8 22 C8 25.96 8 29.92 8 34 C11.03423981 35.5171199 14.17504794 35.18439257 17.5 35.1875 C18.18964844 35.19974609 18.87929687 35.21199219 19.58984375 35.22460938 C21.39477494 35.22988695 23.19917842 35.12184458 25 35 C27.27216848 33.16262173 27.27216848 33.16262173 27.1953125 30.3984375 C27.17210937 29.40070312 27.14890625 28.40296875 27.125 27.375 C27.10695313 26.37210938 27.08890625 25.36921875 27.0703125 24.3359375 C27.04710937 23.56507813 27.02390625 22.79421875 27 22 C23.96570323 20.48285161 20.82398333 20.85636084 17.5 20.875 C16.81035156 20.87113281 16.12070313 20.86726562 15.41015625 20.86328125 C11.57833786 20.80959134 11.57833786 20.80959134 8 22 Z " fill="#005DA7" transform="translate(1185,622)"/>
<path d="M0 0 C1.32 0.33 2.64 0.66 4 1 C0.52475043 17.00170882 -4.80806112 32.49256985 -10 48 C-10.22961426 48.68837952 -10.45922852 49.37675903 -10.69580078 50.08599854 C-24.41626777 91.16905883 -24.41626777 91.16905883 -38 106 C-38.63550781 106.71542969 -39.27101563 107.43085937 -39.92578125 108.16796875 C-48.50737504 117.33428035 -58.95600745 122.98726812 -71.5625 123.4375 C-77.31089336 123.29664089 -81.27807129 122.24208981 -86 119 C-86.86625 118.443125 -87.7325 117.88625 -88.625 117.3125 C-94.64563693 111.45030088 -98.59852714 104.33010276 -100 96 C-99.505 95.01 -99.505 95.01 -99 94 C-98.41992188 94.99580078 -98.41992188 94.99580078 -97.828125 96.01171875 C-91.13364558 107.40596455 -91.13364558 107.40596455 -80 114 C-67.95967645 115.92460415 -57.67791172 111.48104709 -48.0078125 104.56640625 C-18.61682027 81.63685784 -10.01361524 33.93502943 0 0 Z " fill="#C52226" transform="translate(494,552)"/>
<path d="M0 0 C0.99457718 0.00212242 0.99457718 0.00212242 2.00924683 0.00428772 C4.12860613 0.00988871 6.24786009 0.02244125 8.3671875 0.03515625 C9.80338389 0.04017113 11.23958194 0.04473406 12.67578125 0.04882812 C16.19795095 0.05985843 19.72005895 0.07712366 23.2421875 0.09765625 C23.2421875 3.06765625 23.2421875 6.03765625 23.2421875 9.09765625 C22.45980713 9.1227124 21.67742676 9.14776855 20.87133789 9.17358398 C17.34893801 9.28915413 13.8268319 9.41205574 10.3046875 9.53515625 C9.07298828 9.57447266 7.84128906 9.61378906 6.57226562 9.65429688 C4.8175293 9.71713867 4.8175293 9.71713867 3.02734375 9.78125 C1.40131226 9.83623657 1.40131226 9.83623657 -0.25756836 9.89233398 C-2.6970755 9.8212989 -2.6970755 9.8212989 -3.7578125 11.09765625 C-3.87103684 13.52255996 -3.92198125 15.91792487 -3.92578125 18.34375 C-3.92910965 19.07006119 -3.93243805 19.79637238 -3.93586731 20.54469299 C-3.94093925 22.08390671 -3.94327555 23.62313145 -3.94311523 25.16235352 C-3.94530016 27.52183096 -3.96344815 29.88083986 -3.98242188 32.24023438 C-3.98535602 33.73307131 -3.98734067 35.22591048 -3.98828125 36.71875 C-3.99546677 37.42712509 -4.00265228 38.13550018 -4.01005554 38.86534119 C-4.11058293 42.93175257 -4.11058293 42.93175257 -1.7578125 46.09765625 C0.76256714 46.4690154 0.76256714 46.4690154 3.6875 46.51171875 C5.30205078 46.56972656 5.30205078 46.56972656 6.94921875 46.62890625 C8.64111328 46.6753125 8.64111328 46.6753125 10.3671875 46.72265625 C12.07068359 46.78066406 12.07068359 46.78066406 13.80859375 46.83984375 C16.61962706 46.93433226 19.43064983 47.01989166 22.2421875 47.09765625 C22.2421875 50.06765625 22.2421875 53.03765625 22.2421875 56.09765625 C17.86741276 56.2141735 13.49303923 56.28501625 9.1171875 56.34765625 C7.8796875 56.38117187 6.6421875 56.4146875 5.3671875 56.44921875 C-2.76286739 56.5366387 -6.54196059 56.18865066 -12.37353516 50.52978516 C-14.50135306 46.7912804 -14.22556812 43.18196003 -14.2265625 38.94921875 C-14.23417603 38.05907074 -14.24178955 37.16892273 -14.24963379 36.25180054 C-14.26042734 34.37069499 -14.26329091 32.48952956 -14.25878906 30.60839844 C-14.2578181 27.73920966 -14.29941755 24.87270805 -14.34375 22.00390625 C-14.34895837 20.17318264 -14.35164517 18.34244977 -14.3515625 16.51171875 C-14.36795776 15.65840973 -14.38435303 14.80510071 -14.40124512 13.92593384 C-14.35232266 9.68063971 -14.06650914 6.93605773 -11.34570312 3.57177734 C-7.39606301 -0.20422765 -5.38988884 -0.02264659 0 0 Z " fill="#005DA7" transform="translate(1140.7578125,608.90234375)"/>
<path d="M0 0 C0.72703125 0.45890625 1.4540625 0.9178125 2.203125 1.390625 C16.44959204 10.08462284 29.97577998 12.36834037 46.3828125 13.1640625 C53.79002921 13.5560879 58.72736705 15.72736705 64 21 C64.68767908 28.10601719 64.68767908 28.10601719 62.125 31.4375 C58.14188702 34.36625954 54.82202026 34.50994927 50 34 C30.3734414 30.02636023 12.92682015 16.83359623 0 2 C0 1.34 0 0.68 0 0 Z " fill="#F9FCFD" transform="translate(571,602)"/>
<path d="M0 0 C3.0625 1.6875 3.0625 1.6875 5.0625 4.6875 C5.5 8.0625 5.5 8.0625 5.0625 11.6875 C1.80589031 15.73625799 -0.57569978 17.42978976 -5.765625 17.99609375 C-15.73596274 18.37168866 -23.12719222 15.8177649 -31.9375 11.6875 C-33.21545488 11.10784923 -34.49409686 10.52971082 -35.7734375 9.953125 C-38.84060242 8.5559349 -41.89380134 7.13492499 -44.9375 5.6875 C-44.9375 5.3575 -44.9375 5.0275 -44.9375 4.6875 C-43.88433594 4.67332031 -42.83117187 4.65914062 -41.74609375 4.64453125 C-34.0498362 4.42805155 -27.19358335 3.81295769 -19.9375 1.125 C-12.7811682 -1.49039668 -7.24003719 -2.76868498 0 0 Z " fill="#FCFDF9" transform="translate(629.9375,558.3125)"/>
<path d="M0 0 C1 2 1 2 0.49023438 3.79663086 C0.19439453 4.51214111 -0.10144531 5.22765137 -0.40625 5.96484375 C-0.73447754 6.76003418 -1.06270508 7.55522461 -1.40087891 8.37451172 C-1.76358887 9.22029785 -2.12629883 10.06608398 -2.5 10.9375 C-2.86657715 11.79617676 -3.2331543 12.65485352 -3.61083984 13.53955078 C-11.6801637 32.00809822 -11.6801637 32.00809822 -20 37 C-24.04829778 38.1182361 -27.50147035 38.52448538 -31.5 37.125 C-33.93683509 33.67281695 -34.2927226 30.16951211 -34 26 C-30.86741783 19.35892581 -25.76284552 16.6091017 -19.125 14.125 C-11.30271889 11.11823729 -5.71185947 5.99745245 0 0 Z " fill="#FDF8F8" transform="translate(463,611)"/>
<path d="M0 0 C2.8100346 1.79363911 4.50940468 3.01880935 6 6 C6.55512815 10.63213493 6.6364242 13.98172127 4.125 18 C0.78160185 21.14672767 -1.45871292 21.23556358 -6.03515625 21.14453125 C-8.58676703 20.95683821 -9.99849561 20.63085543 -12 19 C-14.36230491 15.57873083 -15.25836526 12.9698519 -14.9375 8.875 C-13.96298767 4.8470157 -13.24333221 3.45706985 -10 1 C-6.79826746 -0.60086627 -3.47422941 -0.49917089 0 0 Z " fill="#005DA7" transform="translate(1238,477)"/>
<path d="M0 0 C0 2.64 0 5.28 0 8 C-2.31 8.33 -4.62 8.66 -7 9 C-7.33 20.22 -7.66 31.44 -8 43 C-10.31 43 -12.62 43 -15 43 C-15.09908128 37.8222407 -15.17156806 32.64503653 -15.21972656 27.46655273 C-15.23980786 25.70603825 -15.26707879 23.94559018 -15.30175781 22.18530273 C-15.35043112 19.65071198 -15.37300305 17.11700505 -15.390625 14.58203125 C-15.41127014 13.79850784 -15.43191528 13.01498444 -15.45318604 12.2077179 C-15.45473646 8.40821883 -15.15813449 6.24703968 -13.08886719 3.0144043 C-9.15667376 -0.77761627 -5.29463285 -0.10181986 0 0 Z " fill="#005DA7" transform="translate(1375,622)"/>
<path d="M0 0 C0.33 0 0.66 0 1 0 C0.96970703 0.67909424 0.93941406 1.35818848 0.90820312 2.05786133 C0.01175441 23.41230409 -0.1132408 44.76614951 -0.12338257 66.13598251 C-0.12498475 68.35389411 -0.12853506 70.57179498 -0.13256836 72.78970337 C-0.15853552 88.88305055 -0.06681621 104.9345741 1 121 C0.01 121 -0.98 121 -2 121 C-6.28163187 108.15510439 -4.19777187 91.68590294 -4.1875 78.3125 C-4.18756042 77.11255402 -4.18762085 75.91260803 -4.18768311 74.67630005 C-4.17572186 57.91372138 -3.89065524 41.18302055 -3.125 24.4375 C-3.08579437 23.53085602 -3.04658875 22.62421204 -3.00619507 21.69009399 C-2.89275456 19.14556885 -2.76591031 16.60215867 -2.6328125 14.05859375 C-2.59937241 13.3235965 -2.56593231 12.58859924 -2.53147888 11.83132935 C-2.28444165 7.58767961 -1.52603326 3.96636759 0 0 Z " fill="#0860A3" transform="translate(520,402)"/>
<path d="M0 0 C0.33 0 0.66 0 1 0 C1.14523152 5.52768142 1.28749376 11.05542929 1.42724609 16.58325195 C1.4749734 18.45566771 1.5234504 20.32806454 1.57275391 22.20043945 C1.88644675 34.13677239 2.07089292 46.05946665 2 58 C-1.63 57.67 -5.26 57.34 -9 57 C-8.36877362 50.82668299 -7.50682166 44.75795255 -6.40625 38.65234375 C-6.17887146 37.36814293 -6.17887146 37.36814293 -5.94689941 36.05799866 C-5.46730938 33.35067588 -4.98400937 30.64403591 -4.5 27.9375 C-4.01629359 25.22734273 -3.53347833 22.51703903 -3.05310059 19.80628967 C-2.75571108 18.12855411 -2.45643594 16.45115125 -2.15490723 14.77415466 C-1.28307502 9.86092334 -0.57957897 4.95646041 0 0 Z " fill="#F8E50B" transform="translate(515,465)"/>
<path d="M0 0 C0.33 0 0.66 0 1 0 C1.59193918 19.27090891 -1.17417438 37.95090125 -4.5 56.875 C-4.6553421 57.7598407 -4.8106842 58.6446814 -4.97073364 59.55633545 C-5.42346692 62.11919971 -5.88199562 64.68093432 -6.34375 67.2421875 C-6.48022446 68.00607788 -6.61669891 68.76996826 -6.75730896 69.55700684 C-7.64893899 74.42932854 -8.7550907 79.20547186 -10 84 C-11.65 84 -13.3 84 -15 84 C-14.01 83.505 -14.01 83.505 -13 83 C-12.72104257 80.85767558 -12.45457895 78.71279067 -12.25970459 76.56118774 C-11.84450404 72.46651021 -11.03705488 68.45646371 -10.2578125 64.41796875 C-10.08877411 63.52370682 -9.91973572 62.62944489 -9.74557495 61.70808411 C-9.03199234 57.93306343 -8.31084521 54.15950265 -7.58935547 50.38598633 C-2.76920165 25.3378534 -2.76920165 25.3378534 0 0 Z " fill="#C22829" transform="translate(516,437)"/>
<path d="M0 0 C6.43544152 1.44260295 12.86292095 2.91747044 19.25 4.5625 C20.14203125 4.79066406 21.0340625 5.01882813 21.953125 5.25390625 C24 6 24 6 25 8 C21.04 9.65 17.08 11.3 13 13 C8.17902371 8.91442687 3.88621372 4.97921133 0 0 Z " fill="#F5EA0C" transform="translate(571,582)"/>
<path d="M0 0 C1.875 1.6875 1.875 1.6875 3 4 C2.75925978 7.37036311 2.41201979 8.58798021 0 11 C-2.84602594 11.36487512 -4.3864306 11.40199375 -6.8125 9.8125 C-8.42525784 7.35092224 -8.4334014 5.88934264 -8 3 C-5.86922119 -0.25224135 -3.7535559 -0.65687228 0 0 Z " fill="#005DA7" transform="translate(1525,654)"/>
<path d="M0 0 C2.4375 0.75 2.4375 0.75 4.4375 2.75 C4.0625 6.375 4.0625 6.375 3.4375 9.75 C0.625 10.375 0.625 10.375 -2.5625 10.75 C-3.5525 10.09 -4.5425 9.43 -5.5625 8.75 C-5.9375 5.25 -5.9375 5.25 -5.5625 1.75 C-2.5625 -0.25 -2.5625 -0.25 0 0 Z " fill="#005DA7" transform="translate(1461.5625,654.25)"/>
</svg>
